/* XPM */
static char * collect_xpm[] = {
"64 64 27 1",
" 	c None",
".	c #243A3C",
"+	c #162527",
"@	c #1D2E30",
"#	c #60492F",
"$	c #BE8B4C",
"%	c #AF824A",
"&	c #353A35",
"*	c #7F1B1B",
"=	c #FFFFFF",
"-	c #F17474",
";	c #1A2729",
">	c #792020",
",	c #C53F3F",
"'	c #192526",
")	c #141412",
"!	c #171F1F",
"~	c #161A19",
"{	c #161B1A",
"]	c #6B2323",
"^	c #6B2829",
"/	c #1A2526",
"(	c #1D2B2C",
"_	c #5B2F30",
":	c #A53D3E",
"<	c #A53A3A",
"[	c #182121",
"...............++@@@@@@@@@@@@@@@++...............@@.............",
"...............++@@@@@@@@@@@@@@@++...............@@.............",
"...............++...............++...............@@.............",
"...............++...............++...............@@.............",
"...............@@...............@@...............@@.............",
"...............@@...............@@...............@@.............",
"...............@@...............@@...............@@.............",
"...............@@...............@@...............@@.............",
"...............@@...............@@...............@@.............",
"...............@@...............@@...............@@.............",
"...............@@...............@@...............@@.............",
"...............@@...............@@...............@@.............",
"...............@@...............@@...............@@.............",
"...............@@...............@@...............@@.............",
"...............@@...............@@...............@@.............",
"@@@@@@@@@@@@@@@@@@@@@@@@@@@@@@@@@@@@@@@@@@@@@@@@@@@@@@@@@@@@@@@@",
"@@@@@@@@@@@@@@@@@@@@@@@@@@@@@@@@@@@@@@@@@@@@@@@@@@@@@@@@@@@@@@@@",
"...............@@...............@@...............@@.............",
"...............@@...............@@...............@@.............",
"...............@@...............@@...............@@.............",
"...............@@...............@@...............@@.............",
"...............@@...............@@...............@@.............",
"...............@@...............@@...............@@.............",
"...............@@...............@@...............@@.............",
"...............@@...........#$%&@@...............@@.............",
"...............@@..........*===-;@...............@@.............",
"...............@@..........>-=-,'@...............@@.............",
"...............@@...........)**)@@...............@@.............",
"...............@@...........*,,)@@...............@@.............",
"...............@@..........*-=-,!@...............@@.............",
"...............@@.........*-==-,,~...............@@.............",
"...............@@........*-===-*--{..............@@.............",
"++@@@@@@@@@@@@@@@@@@@@@@]-====,**--!@@@@@@@@@@@@@@@@@@@@@@@@@@@@",
"++@@@@@@@@@@@@@@@@@@@@@@]-====*))*-)@@@@@@@@@@@@@@@@@@@@@@@@@@@@",
"...............@@.......^-====)))),).............@@.............",
"...............@@......./-----)))),).............@@.............",
"...............@@.......(,---,*))**).............@@.............",
"...............@@........)*,,***,,)..............@@.............",
"...............@@.........._^^^:<[...............@@.............",
"...............@@...............@@...............@@.............",
"...............@@...............@@...............@@.............",
"...............@@...............@@...............@@.............",
"...............@@...............@@...............@@.............",
"...............@@...............@@...............@@.............",
"...............@@...............@@...............@@.............",
"...............@@...............@@...............@@.............",
"...............@@...............@@...............@@.............",
"...............@@...............@@...............@@.............",
"...............@@...............@@...............@@.............",
"@@@@@@@@@@@@@@@@@@@@@@@@@@@@@@@@@@@@@@@@@@@@@@@@@@@@@@@@@@@@@@@@",
"@@@@@@@@@@@@@@@@@@@@@@@@@@@@@@@@@@@@@@@@@@@@@@@@@@@@@@@@@@@@@@@@",
"...............@@...............@@...............@@.............",
"...............@@...............@@...............@@.............",
"...............@@...............@@...............@@.............",
"...............@@...............@@...............@@.............",
"...............@@...............@@...............@@.............",
"...............@@...............@@...............@@.............",
"...............@@...............@@...............@@.............",
"...............@@...............@@...............@@.............",
"...............@@...............@@...............@@.............",
"...............@@...............@@...............@@.............",
"...............@@...............@@...............@@.............",
"...............@@...............@@...............@@.............",
"...............@@...............@@...............@@............."};
