/* XPM */
static char * exit_xpm[] = {
"64 64 11 1",
" 	c #243A3C",
".	c #162527",
"+	c #1D2E30",
"@	c #6E4B2C",
"#	c #332520",
"$	c #141412",
"%	c #523D2A",
"&	c #281818",
"*	c #5C8EA5",
"=	c #3B535E",
"-	c #8AC6E0",
"               ..+++++++++++++++..               ++             ",
"               ..+++++++++++++++..               ++             ",
"               ..               ..               ++             ",
"               ..               ..               ++             ",
"               ++               ++               ++             ",
"               ++               ++               ++             ",
"               ++               ++               ++             ",
"               ++               ++               ++             ",
"               ++               ++               ++             ",
"               ++               ++               ++             ",
"               ++               ++               ++             ",
"               ++               ++               ++             ",
"               ++               ++               ++             ",
"               ++               ++               ++             ",
"               ++               ++               ++             ",
"++++++++++++++++++++++++++++++++++++++++++++++++++++++++++++++++",
"++++++++++++++++@@#@@@@@@@@@@@@@@@@@@@@@@@@@@#@@++++++++++++++++",
"               +@@#@@@@@@@@@@@@@@@@@@@@@@@@@@#@@ ++             ",
"               +###$$$$$$$$$$$$$$$$$$$$$$$$$$### ++             ",
"               +@@$$$$$$$$$$$$$$$$$$$$$$$$$$$$%% ++             ",
"               +@@$$&&&&$&&&&&&$&&&&&&$&&&&&&$%% ++             ",
"               +%%$$&&&&$&&&&&&$&&&&&&$&&&&&&$%% ++             ",
"               +@@$$&&##$######$#####&$######$%% ++             ",
"               +%%$$&&#&$######&####&&$######$%% ++             ",
"               +**=**&##$######&#####&$######$%% ++             ",
"               +**=**&#&$######&####&&$######$%% ++             ",
"               +**=**&##$######&#####&$######$** ++             ",
"               +##$$$$##$######&######$######$** ++             ",
"               +%%$$&&##&######&#####&$######=-- ++             ",
"               +%%$$&&##&######&#####&&###*=**-- ++             ",
"               +%%$$&&##$######&######&###*=**-- ++             ",
"               +%%$$&&##&######&#####&&###*$$$-- ++             ",
"..++++++++++++++%%$$&&##&######&#####&&###*$$$--++++++++++++++++",
"..++++++++++++++%%$$&&##&######&######&###*=**--++++++++++++++++",
"               +%%$$&&##&######&#####&&###*=**-- ++             ",
"               +%%$$&&##&######$######&####&&=-- ++             ",
"               +%%$$&&##&#####&$######&####&&$** ++             ",
"               +**=**&##&######$######&######$** ++             ",
"               +**=**&##&#####&$######&######$## ++             ",
"               +**=**&##&######$######&######$%% ++             ",
"               +##$$$$##&#####&$######&######$%% ++             ",
"               +%%$$&&##&######$######$######$%% ++             ",
"               +%%$$&&##$#####&$######$######$%% ++             ",
"               +%%$$&&##$&&&&&&$######$&&&&&&$%% ++             ",
"               +###$$$$$$$$$$$$$$$$$$$$$$$$$$### ++             ",
"               +@@#@@@@@@@@@%@%@%%%%%%%%%%%%%#%% ++             ",
"               +@@#@@@@@@@@@%@%@%%%%%%%%%%%%%#%% ++             ",
"               +################################ ++             ",
"               ++               ++               ++             ",
"++++++++++++++++++++++++++++++++++++++++++++++++++++++++++++++++",
"++++++++++++++++++++++++++++++++++++++++++++++++++++++++++++++++",
"               ++               ++               ++             ",
"               ++               ++               ++             ",
"               ++               ++               ++             ",
"               ++               ++               ++             ",
"               ++               ++               ++             ",
"               ++               ++               ++             ",
"               ++               ++               ++             ",
"               ++               ++               ++             ",
"               ++               ++               ++             ",
"               ++               ++               ++             ",
"               ++               ++               ++             ",
"               ++               ++               ++             ",
"               ++               ++               ++             "};
