/* XPM */
static char * floor_xpm[] = {
"64 64 3 1",
" 	c #243A3C",
".	c #162527",
"+	c #1D2E30",
"               ..+++++++++++++++..               ++             ",
"               ..+++++++++++++++..               ++             ",
"               ..               ..               ++             ",
"               ..               ..               ++             ",
"               ++               ++               ++             ",
"               ++               ++               ++             ",
"               ++               ++               ++             ",
"               ++               ++               ++             ",
"               ++               ++               ++             ",
"               ++               ++               ++             ",
"               ++               ++               ++             ",
"               ++               ++               ++             ",
"               ++               ++               ++             ",
"               ++               ++               ++             ",
"               ++               ++               ++             ",
"++++++++++++++++++++++++++++++++++++++++++++++++++++++++++++++++",
"++++++++++++++++++++++++++++++++++++++++++++++++++++++++++++++++",
"               ++               ++               ++             ",
"               ++               ++               ++             ",
"               ++               ++               ++             ",
"               ++               ++               ++             ",
"               ++               ++               ++             ",
"               ++               ++               ++             ",
"               ++               ++               ++             ",
"               ++               ++               ++             ",
"               ++               ++               ++             ",
"               ++               ++               ++             ",
"               ++               ++               ++             ",
"               ++               ++               ++             ",
"               ++               ++               ++             ",
"               ++               ++               ++             ",
"               ++               ++               ++             ",
"..++++++++++++++++++++++++++++++++++++++++++++++++++++++++++++++",
"..++++++++++++++++++++++++++++++++++++++++++++++++++++++++++++++",
"               ++               ++               ++             ",
"               ++               ++               ++             ",
"               ++               ++               ++             ",
"               ++               ++               ++             ",
"               ++               ++               ++             ",
"               ++               ++               ++             ",
"               ++               ++               ++             ",
"               ++               ++               ++             ",
"               ++               ++               ++             ",
"               ++               ++               ++             ",
"               ++               ++               ++             ",
"               ++               ++               ++             ",
"               ++               ++               ++             ",
"               ++               ++               ++             ",
"               ++               ++               ++             ",
"++++++++++++++++++++++++++++++++++++++++++++++++++++++++++++++++",
"++++++++++++++++++++++++++++++++++++++++++++++++++++++++++++++++",
"               ++               ++               ++             ",
"               ++               ++               ++             ",
"               ++               ++               ++             ",
"               ++               ++               ++             ",
"               ++               ++               ++             ",
"               ++               ++               ++             ",
"               ++               ++               ++             ",
"               ++               ++               ++             ",
"               ++               ++               ++             ",
"               ++               ++               ++             ",
"               ++               ++               ++             ",
"               ++               ++               ++             ",
"               ++               ++               ++             "};
