/* XPM */
static char * player_xpm[] = {
"64 64 52 1",
" 	c #243A3C",
".	c #162527",
"+	c #1D2E30",
"@	c #232921",
"#	c #252717",
"$	c #252716",
"%	c #252D24",
"&	c #5F5625",
"*	c #928230",
"=	c #141412",
"-	c #252B20",
";	c #151715",
">	c #161918",
",	c #373A20",
"'	c #161B1B",
")	c #1B2727",
"!	c #1D2B2C",
"~	c #0C98D6",
"{	c #331E32",
"]	c #1C3845",
"^	c #1B2627",
"/	c #182121",
"(	c #5F2E5C",
"_	c #932D8B",
":	c #171F1F",
"<	c #171D1D",
"[	c #151615",
"}	c #47280D",
"|	c #B56C30",
"1	c #F09A53",
"2	c #252C23",
"3	c #1C2A2B",
"4	c #252819",
"5	c #181F1F",
"6	c #252A1E",
"7	c #25291C",
"8	c #373A21",
"9	c #141513",
"0	c #161A19",
"a	c #171C1B",
"b	c #182020",
"c	c #1D2C2D",
"d	c #151716",
"e	c #181F1E",
"f	c #C9834C",
"g	c #C07F4B",
"h	c #1C2829",
"i	c #3C3027",
"j	c #915C35",
"k	c #9C6134",
"l	c #A56533",
"m	c #192121",
"               ..+++++++++++++++..               ++             ",
"               ..+++++++++++++++..               ++             ",
"               ..               ..               ++             ",
"               ..               ..               ++             ",
"               ++               ++               ++             ",
"               ++               ++               ++             ",
"               ++               ++               ++             ",
"               ++               ++               ++             ",
"               ++               ++               ++             ",
"               ++               ++               ++             ",
"               ++               ++               ++             ",
"               ++               ++               ++             ",
"               ++               ++               ++             ",
"               ++               ++               ++             ",
"               ++               ++               ++             ",
"++++++++++++++++++++++++++++++++++++++++++++++++++++++++++++++++",
"++++++++++++++++++++++++++++@#$$$$$+++++++++++++++++++++++++++++",
"               ++         %$&****&&=             ++             ",
"               ++        -&********&=            ++             ",
"               ++       ;&&*********&;           ++             ",
"               ++      >,,,&***&==&**=           ++             ",
"               ++      =,,,,&*=====&*'           ++             ",
"               ++     =,,,,,*=======*)           ++             ",
"               ++     =,,,,&*=======*!           ++             ",
"               ++    =,,,,,*===~==~=&!           ++             ",
"               ++    =,&&&,*{==]==]=&^           ++             ",
"               ++    )=,&&&*{=======,/           ++             ",
"               ++     ===,,&{({====={;           ++             ",
"               ++     =,,,,&&(((____(=           ++             ",
"               ++     $***,,&*((____(==          ++             ",
"               ++    $*****&&****&&**==          ++             ",
"               ++    $*****&&&*******==          ++             ",
"..+++++++++++++++++++$&***&,,,*******=:+++++++++++++++++++++++++",
"..++++++++++++++++++++$$$$=,,,&*****&<++++++++++++++++++++++++++",
"               ++       [==,,,,======            ++             ",
"               ++        }}|}|||11||=            ++             ",
"               ++        }}|}||1111|=            ++             ",
"               ++       2&&&&&&&11|,,3           ++             ",
"               ++       4******&==&&&5           ++             ",
"               ++      6&******,==&&&&=          ++             ",
"               ++      7******89==&&&&=          ++             ",
"               ++     0=******a [==&&&=          ++             ",
"               ++     ======>bc +<=====          ++             ",
"               ++     =|||==    ++=}}}=          ++             ",
"               ++    d=}}}=     ++=====>         ++             ",
"               ++    efgg^5     ++hijklm         ++             ",
"               ++               ++               ++             ",
"               ++               ++               ++             ",
"               ++               ++               ++             ",
"++++++++++++++++++++++++++++++++++++++++++++++++++++++++++++++++",
"++++++++++++++++++++++++++++++++++++++++++++++++++++++++++++++++",
"               ++               ++               ++             ",
"               ++               ++               ++             ",
"               ++               ++               ++             ",
"               ++               ++               ++             ",
"               ++               ++               ++             ",
"               ++               ++               ++             ",
"               ++               ++               ++             ",
"               ++               ++               ++             ",
"               ++               ++               ++             ",
"               ++               ++               ++             ",
"               ++               ++               ++             ",
"               ++               ++               ++             ",
"               ++               ++               ++             "};
