/* XPM */
static char * wall_xpm[] = {
"64 64 9 1",
" 	c None",
".	c #607897",
"+	c #56687E",
"@	c #394554",
"#	c #343C45",
"$	c #2B3037",
"%	c #141412",
"&	c #191C1E",
"*	c #24282C",
"...+++++++++..++............+++++++++..++............+++++++++..",
"...+++++++++..++............+++++++++..++............+++++++++..",
"...+++++++++..++............+++++++++..++............+++++++++..",
"@@@#########@@##@@@@@@@@@@@@#########@@##@@@@@@@@@@@@#########@@",
"@@@#########@@##@@@@@@@@@@@@#########@@##@@@@@@@@@@@@#########@@",
"@@@#########@@##@@@@@@@@@@@@#########@@##@@@@@@@@@@@@#########@@",
"@@@#########@@##@@@@@@@@@@@@#########@@##@@@@@@@@@@@@#########@@",
"$$$$$$$$$$$$$$$$$$$$$$$$$$$$$$$$$$$$$$$$$$$$$$$$$$$$$$$$$$$$$$$$",
"$$$$$$$$$$$$$$$$$$$$$$$$$$$$$$$$$$$$$$$$$$$$$$$$$$$$$$$$$$$$$$$$",
"%%%%%%%%%%%%%%%%%%%%%%%%%%%%%%%%%%%%%%%%%%%%%%%%%%%%%%%%%%%%%%%%",
"&&&&&&&&&&&&&&&&&******&&******************************&&&&&&&&&",
"&&&&&&&&&&&&&&&&&******&&******************************&&&&&&&&&",
"&&&&&&&&&&&&&&&&&******&&******************************&&&&&&&&&",
"&&&&&&&&&&&&&&&&&******&&******************************&&&&&&&&&",
"%%%%%%&&&&&&&&&&&&&&&&&&&&&&&&&&&&&&&&&&&&&&&&&&&&&&&&&&&&&&&&&&",
"%%%%%%&&&&&&&&&&&&&&&&&&&&&&&&&&&&&&&&&&&&&&&&&&&&&&&&&&&&&&&&&&",
"%%*********$&&#############$##$$$$$$$&&###################&$$***",
"%%&&&&*****$**#############$##$$$$$$$**###################*$$***",
"%%&&&&*****$**#############$##$$$$$$$**###################*$$***",
"%%&&&&*****$**#############$##$$$$$$$**###################*$$***",
"%%&&&&*****$**#############$##$$$$$$$**###################*$$***",
"%%%%%%%%&&&**************************************************&&&",
"&&&***$$$$$############$$@@@@@@##@###########################$$$",
"&&&***$$$$$############$$@@@@@@##@###########################$$$",
"&&&***$$$$$############$$@@@@@@##@###########################$$$",
"&&&***$$$$$############$$@@@@@@##@###########################$$$",
"&&&***$$$$$############**@@@@@@##@###########################$$$",
"&&&***$$$$$############**@@@@@@##@###########################$$$",
"%%%%%%%%&&&*******************$$$$$$$$$$$$$$*****************&&&",
"%%&&&$######**@@@@@@@@@@@@@@@@@@@@@@@$$@@@@@@@@@@@@@@@@@@@*#####",
"%%&&&$######**@@@@@@@@@@@@@@@@@@@@@@@$$@@@@@@@@@@@@@@@@@@@*#####",
"%%&&&&$$$$$$**################@@@@@@@$$###################*$$$$$",
"%%&&&&$$$$$$**################@@@@@@@$$###################*$$$$$",
"%%&&&&$$$$$$**################@@@@@@@**###################*$$$$$",
"%%&&&&$$$$$$**################@@@@@@@**###################*$$$$$",
"%%%%%%%%&&&**************************************************&&&",
"&&***$$$$$$############**@@@@@@@@############################$$$",
"&&***$$$$$$############**@@@@@@@@############################$$$",
"&&&&&******$$$$$$$$$$$$**###$$#$$$$$$$$$$$$$$$$$$$$$$$$$$$$$$***",
"&&&&&******$$$$$$$$$$$$**###$$#$$$$$$$$$$$$$$$$$$$$$$$$$$$$$$***",
"&&&&&******$$$$$$$$$$$$&&###$$#$$$$$$$$$$$$$$$$$$$$$$$$$$$$$$***",
"&&&&&******$$$$$$$$$$$$&&###$$#$$$$$$$$$$$$$$$$$$$$$$$$$$$$$$***",
"%%%%%%%%&&&&&&&&&&&&&&&&&&&&&&&&&&&&&&&&&&&&&&&&&&&&&&&&&&&&&&&&",
"%%&&&&**&***&&$$$$$$$$$$$$$*$$*******&&$$$$$$$$$$$$$$$$$$$&***&&",
"%%&&&&**&***&&$$$$$$$$$$$$$*$$*******&&$$$$$$$$$$$$$$$$$$$&***&&",
"%%&&&&**&***&&$$$$$$$$$$$$$*$$*******&&$$$$$$$$$$$$$$$$$$$&***&&",
"%%&&&&**&***&&$$$$$$$$$$$$$*$$*******&&$$$$$$$$$$$$$$$$$$$&***&&",
"%%&&&&**&***&&$$$$$$$$$$$$$*$$*******&&$$$$$$$$$$$$$$$$$$$&***&&",
"%%%%%%&&&&&&&&&&&&&&&&&&&&&&&&&&&&&&&&&&&&&&&&&&&&&&&&&&&&&&&&&&",
"%%%%%%&&&&&&&&&&&&&&&&&&&&&&&&&&&&&&&&&&&&&&&&&&&&&&&&&&&&&&&&&&",
"*****$**$$$###@@@@@@@@@@@@@@@@@@@@@@@@@@@@@@@@@@@@@@@@@@@@###$$$",
"*****$**$$$###@@@@@@@@@@@@@@@@@@@@@@@@@@@@@@@@@@@@@@@@@@@@###$$$",
"*****$**$$$###@@@@@@@@@@@@@@@@@@@@@@@@@@@@@@@@@@@@@@@@@@@@###$$$",
"*****$**$$$###@@@@@@@@@@@@@@@@@@@@@@@@@@@@@@@@@@@@@@@@@@@@###$$$",
"%%%%%%%%%%%%%%%%&&&&&&&&&&&&&&&&&&&&&&&&&&&&&&&&&&&&&&&&%%%%%%%%",
"%%%%%%%%%%%%%%%%&&&&&&&&&&&&&&&&&&&&&&&&&&&&&&&&&&&&&&&&%%%%%%%%",
"%%%%%%%%%%%%%%%%&&&&&&&&&&&&&&&&&&&&&&&&&&&&&&&&&&&&&&&&%%%%%%%%",
"%%%%%%%%%%%%%%%%&&&&&&&&&&&&&&&&&&&&&&&&&&&&&&&&&&&&&&&&%%%%%%%%",
"%%%%%%%%%%%%%%%%&&&&&&&&&&&&&&&&&&&&&&&&&&&&&&&&&&&&&&&&%%%%%%%%",
"&&&&&&&&&&&@@@@@@@@@@@@@@@@@@@@@@@@@@@@@@@@@@@@@@@@@@@@@@@@@@&&&",
"&&&&&&&&&&&@@@@@@@@@@@@@@@@@@@@@@@@@@@@@@@@@@@@@@@@@@@@@@@@@@&&&",
"%%%%%%%%%%%%&&&&&&&&&&&&&&&&&&&&&&&&&&&&&&&&&&&&&&&&&&&&&&&%%%%%",
"%%%%%%%%%%%%&&&&&&&&&&&&&&&&&&&&&&&&&&&&&&&&&&&&&&&&&&&&&&&%%%%%",
"%%%%%%%%%%%%&&&&&&&&&&&&&&&&&&&&&&&&&&&&&&&&&&&&&&&&&&&&&&&%%%%%"};
